<svg xmlns="http://www.w3.org/2000/svg" width="1024" height="1024" viewBox="0 0 1024 1024" version="1.1">
	<path d="M 516.500 147.132 C 514.300 147.644, 509.350 149.140, 505.500 150.455 C 476.638 160.318, 428.025 177.064, 411 183.009 C 399.725 186.945, 383.525 192.554, 375 195.472 C 358.132 201.247, 316.732 215.705, 269.431 232.341 C 252.893 238.157, 237.252 243.821, 234.672 244.926 C 228.215 247.694, 220.696 255.010, 217.858 261.286 L 215.500 266.500 215.500 404.500 C 215.500 535.612, 215.592 542.799, 217.338 548.500 C 220.097 557.505, 223.679 563.389, 230.168 569.579 C 236.567 575.682, 246.333 580.699, 305.500 608.282 C 366.790 636.853, 407.676 656.024, 412 658.217 L 416.500 660.500 416.772 679.750 C 416.998 695.786, 416.808 699, 415.632 699 C 409.894 699, 370.494 689.109, 354.500 683.654 C 292.833 662.620, 250.632 636.322, 221.060 600.500 C 208.503 585.288, 198.115 565.794, 193.351 548.500 C 190.801 539.245, 190.593 537.084, 190.559 519.500 C 190.516 497.862, 191.599 491.060, 198.134 471.929 C 201.398 462.375, 201.907 459.886, 201.058 457.653 C 198.746 451.572, 193.548 452.973, 187.625 461.272 C 181.119 470.390, 171.578 489.111, 168.037 499.707 C 159.668 524.752, 160.244 554.212, 169.634 581.281 C 183.240 620.506, 211.755 656.045, 254.669 687.263 C 294.871 716.507, 354.067 741.108, 404.496 749.527 C 409.448 750.354, 414.495 751.253, 415.710 751.524 L 417.920 752.018 418.210 783.759 C 418.474 812.622, 418.673 815.848, 420.406 819.339 C 422.922 824.405, 428.744 828.173, 434.983 828.772 C 440.717 829.323, 443.912 827.776, 452.875 820.107 C 457.229 816.383, 524.413 760.584, 553.123 736.848 C 558.590 732.329, 560.486 728.406, 559.569 723.515 C 558.867 719.777, 554.578 715.968, 525.208 693 C 518.526 687.775, 513.178 683.105, 513.322 682.622 C 513.637 681.573, 508.476 683.568, 573 659.545 C 601.875 648.795, 627.750 639.123, 630.500 638.053 C 633.250 636.983, 657.100 627.995, 683.500 618.081 C 767.834 586.409, 772.034 584.724, 780.793 579.042 C 791.107 572.351, 797.606 563.029, 799.996 551.500 C 800.690 548.153, 800.945 501.050, 800.766 409 L 800.500 271.500 798.268 266.709 C 795.255 260.243, 787.119 251.853, 781.280 249.191 C 775.276 246.454, 701.731 215.309, 677 205.029 C 670.675 202.400, 638.275 188.560, 605 174.274 C 571.725 159.987, 542.388 147.781, 539.807 147.149 C 534.325 145.807, 522.231 145.798, 516.500 147.132 M 518 166.053 C 513.325 167.747, 500.275 172.302, 489 176.177 C 464.859 184.472, 465.012 184.403, 467.590 185.773 C 468.641 186.332, 506.625 203.329, 552 223.544 C 597.375 243.760, 644.587 264.806, 656.916 270.313 L 679.331 280.326 690.416 276.598 C 720.302 266.545, 745.285 257.401, 745.239 256.532 C 745.211 255.999, 722.308 245.745, 694.344 233.744 C 666.380 221.743, 630.450 206.255, 614.500 199.326 C 549.432 171.059, 532.894 164.073, 529.773 163.536 C 527.506 163.146, 523.887 163.920, 518 166.053 M 419.066 200.072 C 407.827 203.865, 398.174 207.426, 397.616 207.984 C 396.931 208.669, 396.930 209.330, 397.611 210.011 C 398.167 210.567, 412.544 217.371, 429.561 225.132 C 513.732 263.522, 565.372 287.038, 583.500 295.234 C 594.500 300.208, 604.625 305.349, 606 306.659 L 608.500 309.042 608.803 332.072 C 609.048 350.770, 609.371 355.205, 610.516 355.645 C 611.989 356.210, 657.551 340.618, 659.744 338.798 C 660.684 338.018, 660.996 332.184, 660.985 315.628 C 660.976 303.457, 660.611 292.936, 660.174 292.247 C 659.736 291.558, 649.956 286.784, 638.439 281.639 C 626.923 276.493, 596.575 262.941, 571 251.523 C 545.425 240.105, 511.900 225.129, 496.500 218.243 C 481.100 211.357, 464.571 203.999, 459.768 201.891 C 454.965 199.783, 449.340 197.203, 447.268 196.158 C 445.196 195.112, 442.600 194.013, 441.500 193.716 C 440.378 193.412, 430.526 196.204, 419.066 200.072 M 350 224.420 C 337.432 228.796, 285.745 247.129, 271 252.440 C 269.075 253.134, 267.500 254.281, 267.500 254.991 C 267.500 255.702, 276.019 260.063, 286.500 264.716 C 340.403 288.651, 430.200 328.365, 450.142 337.090 L 472.785 346.996 492.142 340.094 C 502.789 336.298, 522.975 329.049, 537 323.985 C 551.025 318.921, 563.762 314.326, 565.304 313.772 C 567.332 313.045, 568.024 312.196, 567.804 310.708 C 567.560 309.059, 561.344 305.847, 536.500 294.533 C 519.450 286.768, 494.025 275.188, 480 268.799 C 392.313 228.854, 372.053 219.880, 368.500 219.415 C 366.610 219.168, 359.764 221.020, 350 224.420 M 237.861 267.912 L 235.500 269.823 235.240 407.211 L 234.979 544.599 237.740 550.050 C 240.454 555.409, 240.717 555.609, 253.500 562.030 C 260.650 565.621, 271.225 570.745, 277 573.415 C 282.775 576.086, 299.425 583.777, 314 590.507 C 328.575 597.238, 352.650 608.471, 367.500 615.470 C 412.009 636.449, 413.216 637, 414.634 637 C 415.385 637, 416.002 636.212, 416.005 635.250 C 416.013 632.519, 420.308 626.095, 423.558 623.953 C 426.868 621.770, 433.898 621.356, 437.316 623.141 C 438.517 623.768, 442.200 626.386, 445.500 628.959 C 457.795 638.543, 461.177 641, 462.077 641 C 463.480 641, 463.302 368.758, 461.897 365.674 C 461.009 363.725, 452.179 359.396, 416.647 343.490 C 392.366 332.620, 363.950 319.900, 353.500 315.223 C 343.050 310.545, 314.138 297.557, 289.251 286.359 C 264.364 275.162, 243.152 266, 242.112 266 C 241.072 266, 239.159 266.860, 237.861 267.912 M 750 276.566 C 739.825 280.121, 720.250 286.896, 706.500 291.622 C 692.750 296.347, 680.938 300.670, 680.250 301.229 C 679.322 301.983, 679 307.635, 679 323.155 C 679 345.011, 678.431 348.589, 674.388 352.174 C 671.736 354.525, 602.503 379, 598.505 379 C 596.699 379, 594.159 378.140, 592.861 377.090 C 590.521 375.197, 590.497 374.977, 590.198 352.170 C 589.964 334.297, 589.594 328.908, 588.539 328.032 C 587.176 326.901, 580.452 329.190, 510.097 354.730 C 486.975 363.124, 485.732 363.925, 483.957 371.577 C 483.435 373.831, 483.038 435.174, 483.024 515.782 C 482.998 669.409, 482.676 661.230, 488.872 664.434 C 493.447 666.799, 495.847 666.425, 510.247 661.095 C 517.536 658.398, 543.075 648.972, 567 640.149 C 615.736 622.177, 731.250 579.317, 754.974 570.403 C 770.967 564.395, 776.424 560.949, 779.565 554.875 C 780.791 552.503, 781 532.174, 781 415.097 C 781 311.008, 780.713 277.464, 779.805 275.472 C 778.457 272.513, 774.240 269.975, 770.800 270.051 C 769.535 270.080, 760.175 273.011, 750 276.566 M 694.177 397.987 C 688.405 402.168, 685.762 407.800, 685.256 417 C 684.885 423.726, 685.134 425.062, 687.671 429.949 C 691.378 437.089, 694.775 439.520, 700.918 439.430 C 707.100 439.340, 711.233 436.416, 714.723 429.662 C 720.219 419.027, 717.388 402.895, 709.034 397.250 C 704.295 394.048, 699.271 394.297, 694.177 397.987 M 578.966 427.250 C 575.336 429.082, 573.903 430.678, 571.254 435.837 C 568.463 441.272, 568.003 443.195, 568.022 449.337 C 568.070 465.087, 578.194 474.527, 589.217 469.103 C 596.556 465.491, 601 457.155, 601 447 C 601 437.188, 596.830 429.080, 590.400 426.394 C 585.867 424.500, 584.162 424.627, 578.966 427.250 M 817.596 450.166 C 816.718 451.420, 816 452.933, 816 453.529 C 816 454.125, 817.834 459.313, 820.076 465.057 C 840.259 516.768, 834.213 562.832, 801.981 602.902 C 784.635 624.467, 761.025 643.167, 728.194 661.344 C 702.403 675.623, 674.180 686.526, 632 698.506 C 621.399 701.517, 614.299 704.099, 612.141 705.730 C 605.370 710.846, 602.889 722.942, 606.971 730.943 C 613.643 744.021, 628.466 746.441, 657.107 739.129 C 730.207 720.466, 795.712 677.408, 830.383 625.232 C 850.502 594.955, 860.084 563.236, 858.699 531.500 C 857.561 505.400, 846.006 474.312, 829.965 454.189 C 824.658 447.531, 820.410 446.149, 817.596 450.166 M 696.718 475.007 C 695.315 476.111, 692.146 480.518, 689.676 484.800 C 683.649 495.249, 678.102 502.093, 671.219 507.572 C 648.847 525.381, 623.034 525.634, 600.666 508.266 C 592.768 502.132, 587.458 501.389, 583.048 505.798 C 580.539 508.307, 580 509.655, 580 513.420 C 580 517.293, 580.569 518.624, 583.714 522.105 C 590.949 530.114, 605.441 538.361, 618 541.618 C 626.612 543.851, 643.324 543.838, 652 541.592 C 662.535 538.863, 677.530 530.874, 686.502 523.208 C 699.274 512.295, 713 492.440, 713 484.878 C 713 475.864, 703.190 469.916, 696.718 475.007 M 439.667 658.667 C 439.300 659.033, 439 689.768, 439 726.967 C 439 796.908, 439.008 797.044, 442.950 796.972 C 443.802 796.956, 453.950 788.807, 465.500 778.863 C 477.050 768.920, 495.613 753.134, 506.750 743.785 C 517.888 734.435, 526.979 726.496, 526.954 726.143 C 526.887 725.224, 442.024 658.016, 440.917 658.005 C 440.596 658.002, 440.033 658.300, 439.667 658.667" stroke="none" fill="#0fa679" fill-rule="evenodd"/>
</svg>